<?xml version="1.0" encoding="UTF-8"?>
<svg xmlns="http://www.w3.org/2000/svg" version="1.1" viewBox="0 0 328.7 292.7">
  <defs>
    <style>
      .cls-1, .cls-2, .cls-3, .cls-4, .cls-5, .cls-6, .cls-7, .cls-8 {
        stroke-width: 0px;
      }

      .cls-1, .cls-3 {
        fill: #ead2b2;
      }

      .cls-1, .cls-9, .cls-10 {
        mix-blend-mode: multiply;
      }

      .cls-2 {
        fill: #41afac;
      }

      .cls-4 {
        fill: #4b7099;
      }

      .cls-5 {
        fill: #348c8c;
      }

      .cls-6 {
        opacity: .3;
      }

      .cls-6, .cls-7 {
        fill: #2c7a7b;
      }

      .cls-11 {
        isolation: isolate;
      }

      .cls-8 {
        fill: #fff;
      }

      .cls-10 {
        opacity: .5;
      }
    </style>
  </defs>
  <g class="cls-11">
    <g id="LIGHT">
      <path class="cls-6" d="M1.8,219.5c1.5-11.2,4.1-22.7,10.7-31.9,6.6-9.2,18.2-15.6,29.3-13.3,10.1,2.1,20.3,10.7,29.4,5.9,4.8-2.6,7.1-8.1,9-13.1,12.8-33.9,26.8-70.8,57.8-89.5,31.3-18.8,75.8-11.7,99.6,16,17.8,20.7,23.5,48.9,28,75.8,4.6,27.4,8.5,54.9,11.9,82.5.8,6.6,1.3,14-2.8,19.2-3.8,4.7-10.3,6.1-16.3,7.1-40.6,6.7-81.8,10.1-123,10.2-39.9,0-85.4.3-124.2-10-12.2-3.2-10.3-10.6-10.9-23-.6-11.9-.1-23.9,1.5-35.8Z"/>
      <path class="cls-6" d="M48.2,81c-9.3,7.4-14,19.2-15.6,31-.7,5.5-.8,11.3,1.1,16.5,1.9,5.2,6.1,9.9,11.5,11.1,6.6,1.5,13.2-2.3,18.3-6.7,10.1-8.7,17.3-20.8,20.1-33.9,5.1-23.3-18.5-31.4-35.4-17.9Z"/>
      <path class="cls-6" d="M108.3,262.5c-2.3-24,6-50.6,26.5-63.4,6.3-3.9,14-6.4,21.2-4.6,7,1.7,12.5,7.2,17.2,12.7,3.6,4.2,6.9,8.6,10.1,13.2,3.9,5.7,8,12.2,14.7,14,5.2,1.4,10.8-.3,15.1-3.6,4.3-3.2,7.4-7.7,10.3-12.3,14.7-23.7,23.3-51.4,41.6-72.5,6.2-7.2,15-13.9,24.3-12.1,8.7,1.7,14.3,10.1,18.2,18,13.9,27.7,21,58.9,20.4,89.9-.2,10.8-1.9,22.7-10.1,29.7-4.7,4-10.8,5.7-16.7,7-11.2,2.4-22.5,3.7-33.9,5-43.7,4.9-87.9,9.7-131.6,4.5-7.3-.9-17.3-2.3-22.4-8.3-3.6-4.2-4.5-12-5-17.3Z"/>
      <path class="cls-6" d="M285.8,88.3c.8-12.1,1.1-24.5-2.1-36.3-1.6-6-4.3-11.9-8.9-16.1s-11.5-6.2-17.3-3.9c-5.4,2.1-8.8,7.5-10.5,13-1.4,4.5-1.7,9.6.2,13.9,2.3,5,7.1,8.2,11,12.1,6.4,6.4,10.2,15.2,10.7,24.2.2,4.4-.4,8.8.3,13.1.9,5.9,11.6,17.4,15.7,7.3,1-2.3-.6-7.5-.4-10.1.2-5.7,1-11.5,1.3-17.2Z"/>
      <path class="cls-6" d="M103.9,36.3c-4.5,2.7-7.9,6.8-8.6,12.2-1.7,12.3,11.3,21,22.3,17,9.5-3.4,20.5-17.5,13.9-27.7-2.4-3.8-7.2-5.3-11.7-5.6-5.2-.3-11.2,1.1-15.9,4.1Z"/>
      <path class="cls-6" d="M58.9,38.9c-2.4.7-4.7,2-6.3,4-2.5,3.1-3,7.8-.6,10.9,4.7,6,15.8,3.5,19.5-2.4,6-9.7-4.3-14.8-12.6-12.5Z"/>
      <ellipse class="cls-7" cx="164.4" cy="275.2" rx="164.4" ry="17.5"/>
      <path class="cls-3" d="M136.9,202.4c-10.1,22.7-22,44.3-35.1,65.4-3.7,0-8.1-.8-11.7-1.9,6.1-25.7,11.6-51.5,16.6-77.4,10.9,2.5,20.6,8.1,30.2,14Z"/>
      <path class="cls-7" d="M166,137.7c-6.7,21.9-15.3,45-26.2,65.1-10.8-2.6-20.8-7.7-30.7-12.8-2.4-1.2-4.7-2.9-6.3-5.2,7.6-16.7,15.2-33.3,22.9-50,13.9,2.4,26.3,1.8,40.3,2.9Z"/>
      <path class="cls-8" d="M102.9,267.1c.4,3.9-.2,7.9-.9,11.8-10.3,1.4-20.7,1.7-31.1.9-.1,0-.3,0-.4.1,0,.1-.3,0-.3,0-.4,0-.8,0-1.1,0,1.7-4.3,5.6-7.4,9.5-9.9,3.1-2,6.3-3.7,9.8-4.7.7-.2,1.4-.3,2.1,0,3.7,1.7,8.3,1.5,12.4,1.8Z"/>
      <path class="cls-3" d="M182.3,202.9c10.1,22.7,22,44.3,35.1,65.4,3.7,0,8.1-.8,11.7-1.9-6.1-25.7-11.6-51.5-16.6-77.4-10.9,2.5-20.6,8.1-30.2,14Z"/>
      <path class="cls-7" d="M153.3,138.2c6.7,21.9,15.3,45,26.2,65.1,10.8-2.6,20.8-7.7,30.7-12.8,2.4-1.2,4.7-2.9,6.3-5.2-7.6-16.7-15.2-33.3-22.9-50-13.9,2.4-26.3,1.8-40.3,2.9Z"/>
      <path class="cls-8" d="M216.3,267.7c-.4,3.9.2,7.9.9,11.8,10.3,1.4,20.7,1.7,31.1.9.1,0,.3,0,.4.1,0,.1.3,0,.3,0,.4,0,.8,0,1.1,0-1.7-4.3-5.6-7.4-9.5-9.9-3.1-2-6.3-3.7-9.8-4.7-.7-.2-1.4-.3-2.1,0-3.7,1.7-8.3,1.5-12.4,1.8Z"/>
      <g>
        <g>
          <path class="cls-7" d="M79.5,269.7c.2,0,.4,0,.5.2s.3.3.4.5c.3.3.6.6.8,1s.5.7.7,1.1.2.4.3.6.2.4.3.6c.2.3.8.1.7-.3s-.2-.5-.3-.7-.2-.4-.4-.6c-.3-.4-.6-.8-.9-1.2s-.7-.7-1-1-.8-.6-1.3-.4,0,.5.2.4h0Z"/>
          <path class="cls-7" d="M83,267.6c1,.4,1.8,1,2.5,1.7s.6.8.9,1.3.5,1.1.9,1.5.7,0,.5-.4-.3-.5-.5-.8-.3-.5-.4-.8c-.3-.5-.6-.9-1-1.3-.8-.8-1.7-1.3-2.8-1.6s-.4.3-.1.4h0Z"/>
          <path class="cls-7" d="M76.1,272.1c.5.4.9.9,1.3,1.4s.6,1.1.9,1.7.2.3.4.2.3-.2.2-.4c-.2-.7-.6-1.3-1.1-1.8s-.9-1-1.5-1.4-.4.2-.2.3h0Z"/>
        </g>
        <g>
          <path class="cls-7" d="M239.9,269.9c-.5-.2-.9,0-1.2.4s-.7.7-1,1.1-.6.8-.9,1.2-.2.4-.4.6-.3.5-.3.7c0,.4.4.6.7.3s.2-.4.3-.6.2-.4.3-.6c.2-.4.4-.7.7-1.1s.5-.7.8-1,.3-.3.4-.5.3-.3.5-.2.4-.3.2-.4h0Z"/>
          <path class="cls-7" d="M236.1,267.8c-1,.3-2,.8-2.8,1.6s-.7.8-1,1.3-.3.5-.4.8-.3.5-.5.8.3.7.5.4c.4-.4.6-1,.9-1.5s.5-.9.9-1.3c.7-.7,1.5-1.4,2.5-1.7s.2-.5-.1-.4h0Z"/>
          <path class="cls-7" d="M242.9,272.3c-.6.4-1.1.8-1.5,1.4s-.8,1.1-1.1,1.8,0,.4.2.4.3,0,.4-.2c.2-.6.5-1.2.9-1.7s.8-1,1.3-1.4,0-.4-.2-.3h0Z"/>
        </g>
      </g>
      <rect class="cls-4" x="87.6" y="158.9" width="133.7" height="6.7" transform="translate(-9.3 9.4) rotate(-3.4)"/>
      <path class="cls-5" d="M94.5,155.6l1.4,23c.5,9.1-5.8,17.1-14.4,19-.9.2-1.9.3-2.8.4l-10.5.6c-10.1.6-18.8-7.2-19.4-17.3l-1.4-23c-.6-10.1,7.2-18.8,17.3-19.4l10.5-.6c.6,0,1.1,0,1.7,0,9.4.3,17.2,7.8,17.7,17.3Z"/>
      <path class="cls-7" d="M94.5,155.6l1.4,23c.5,9.1-5.8,17.1-14.4,19-5.1-5.4-9.1-16.7-9.9-29.9-.7-12.2,1.4-23,5.2-29.3,9.4.3,17.2,7.8,17.7,17.3Z"/>
      <path class="cls-2" d="M67.4,141.2c-5.9-1.1-10.9,2.6-13.5,7.7-1.3,2.5-2,5.4-2.1,8.3,0,1.7.1,3.3.4,5,.2,1,.5,2.1.8,3.1.2.7,1.1,2,1.1,2.7,0-4.3,1.1-8.4,2.6-12.4,1-2.8,2.3-5.6,4.1-8.1,1.9-2.7,4.1-4.2,6.7-6.1Z"/>
      <path class="cls-5" d="M212.7,147.3l1.4,23c.5,9.1,7.7,16.3,16.6,17.2.9,0,1.9.1,2.8,0l10.5-.6c10.1-.6,17.8-9.3,17.3-19.4l-1.4-23c-.6-10.1-9.3-17.8-19.4-17.3l-10.5.6c-.6,0-1.1,0-1.7.2-9.3,1.4-16.1,9.7-15.6,19.2Z"/>
      <path class="cls-7" d="M212.7,147.3l1.4,23c.5,9.1,7.7,16.3,16.6,17.2,4.5-6,7.1-17.7,6.3-30.9-.7-12.2-4.1-22.7-8.6-28.5-9.3,1.4-16.1,9.7-15.6,19.2Z"/>
      <path class="cls-2" d="M237.9,129.8c5.7-1.8,11.2,1.3,14.3,6,1.6,2.4,2.7,5.1,3.1,8,.2,1.6.3,3.3.2,5,0,1-.2,2.1-.4,3.1-.1.7-.8,2.1-.7,2.8-.6-4.2-2.1-8.2-4.1-12-1.4-2.7-3-5.3-5-7.6-2.2-2.4-4.6-3.7-7.4-5.3Z"/>
      <g>
        <path class="cls-3" d="M130.5,53.2c-.4-2.9-3.4-5-6.3-5-2.9,0-5.7,1.7-7.5,3.9-1.9,2.2-3,5-4,7.8-5,14.2-6.7,29.4-6.6,44.5,0,15.1,1.9,30.1,3.7,45,.2,1.7.4,3.5.2,5.3-.3,3.1-1.8,6-1.8,9.1,0,3.1,2.2,6.7,5.2,6.2.2,0,1.4,1.3,2.1,1.3,1,0,1.8-.7,2.5-1.4,0-.1,2.8.5,3.5,0,.9-.7.9-1.8.9-2.8-.1-1.8-1.4-5,1.2-5.7.7-.2,1.4.1,2-.1.9-.3,1.3-1.3,1.2-2.2,0-.9-.5-1.7-.9-2.6-1.5-3.6-1.3-7.6-1.1-11.5,1.7-30.4,10.2-61.6,5.7-91.7Z"/>
        <g class="cls-9">
          <path class="cls-3" d="M113.5,169.7c-.5-1.2-.9-2.4-1.1-3.7s-.2-2.6-.1-3.9-.7-.5-.8,0c-.3,2.6.2,5.5,1.6,7.8s.5,0,.4-.2h0Z"/>
        </g>
        <g class="cls-9">
          <path class="cls-3" d="M118,169.8c-.5-1.2-.9-2.6-1.1-3.9s-.2-1.3-.3-2,0-1.4,0-2-.6-.5-.7,0c-.1.7,0,1.4,0,2.1s.2,1.4.3,2.1c.3,1.4.9,2.7,1.5,4s.4,0,.3-.2h0Z"/>
        </g>
        <path class="cls-1" d="M123.6,67.8s-9.3,44.6,2.1,65.6l1.8-15s-4.8-37.9-3.9-50.6Z"/>
      </g>
      <path class="cls-2" d="M125.7,48.5c-4.1,12.3-2.7,82.9-.3,87,8.9,2.2,61.8,7,71.1-3.3-.6-8-1.1-32.5-1.8-40.5-1.4-16.7-3.6-34.2-13.1-48-18.8-2-37.9-.7-55.9,4.8Z"/>
      <g>
        <g class="cls-9">
          <path class="cls-5" d="M135.6,48.8c-1,5.4,1.2,11.4,6.5,13.6s5.3,1.1,7.8,0,4.8-3.1,6.5-5.2,3.4-5.2,3.8-8.2-.7-.8-.8-.2c-.6,2.5-1.4,4.8-2.9,6.9s-3.4,3.9-5.5,5.3-4.9,2-7.6,1.2-4.6-2.4-5.9-4.6-2-5.7-1.6-8.6-.4-.3-.4,0h0Z"/>
        </g>
        <g class="cls-9">
          <path class="cls-5" d="M127.8,132c8.9,2,17.8,3.5,26.9,3.8s16.8-.6,24.9-3,8.7-3.1,12.5-5.6,0-1-.4-.7c-3.5,2-7.1,3.7-10.9,5s-7.8,2.2-11.8,2.8c-8.6,1.2-17.4.9-26-.2s-10.1-1.5-15.1-2.5-.4.4-.1.5h0Z"/>
        </g>
      </g>
      <g>
        <path class="cls-3" d="M172.5,47.9c.4-2.9,3.4-5.1,6.3-5.1,2.9,0,5.7,1.7,7.5,4s3,5.1,4,7.9c5,14.5,6.7,30,6.6,45.3,0,15.3-1.9,30.6-3.7,45.9-.2,1.8-.4,3.6-.2,5.4.3,3.1,1.8,6.1,1.8,9.3,0,3.2-2.2,6.8-5.2,6.4-.2,0-1.4,1.3-2.1,1.3-1,0-1.8-.7-2.5-1.5,0-.1-2.8.5-3.5,0-.9-.7-.9-1.8-.9-2.9.1-1.8,1.4-5.1-1.2-5.8-.7-.2-1.4.1-2-.1-.9-.3-1.3-1.4-1.2-2.3,0-.9.5-1.8.9-2.6,1.5-3.6,1.3-7.7,1.1-11.7-1.7-30.9-10.2-62.8-5.7-93.4Z"/>
        <g class="cls-9">
          <path class="cls-3" d="M189.8,166.8c1.4-2.3,1.9-5.2,1.6-7.9s-.8-.5-.8,0c.1,1.3,0,2.7-.1,4s-.6,2.5-1.1,3.8.3.4.4.2h0Z"/>
        </g>
        <g class="cls-9">
          <path class="cls-3" d="M185.2,166.9c.7-1.3,1.2-2.6,1.5-4s.3-1.4.3-2.1.2-1.5,0-2.2-.7-.3-.7,0c0,.7,0,1.4,0,2.1s-.1,1.4-.3,2c-.3,1.3-.6,2.7-1.1,4s.2.4.3.2h0Z"/>
        </g>
      </g>
      <path class="cls-7" d="M137.3,32.4c-.8.1-1.7.2-2.5.5-.8.3-1.5.8-1.9,1.5l1.2-.2c.1,0,.3,0,.3.1,0,0,0,0,0,.1-.4.3-.8.8-1,1.3-1.1,1.9-1.6,4.1-1.4,6.3,0,.2,0,.4.2.4.1,0,.2,0,.3-.2.3-.3.5-.6.8-1-.2.5-.3,1.1-.3,1.7.4,0,.8-.4,1-.8,0,.6-.3,1.3-.5,1.9.5.2,1-.1,1.5-.4,1.7-1.2,3.1-2.8,3.9-4.7-.1.5-.3,1-.6,1.4,0,0,.3,0,.4,0,1.2-.9,2.2-2.2,2.6-3.7,0-.3,0-.5,0-.8,0-.2-.2-.4-.3-.6-.5-.8-1-1.6-1.5-2.3-.2-.3-.3-.6-.6-.7-.3,0-.9.1-1.2.2Z"/>
      <g class="cls-10">
        <path class="cls-5" d="M138.2,32.8c-.8.3-1.5.9-2.1,1.5s-.6.8-.9,1.2-.6.8-.8,1.3.2.6.4.3c.6-.7,1-1.6,1.6-2.3s1.1-1.3,1.8-1.6.1-.4-.1-.4h0Z"/>
      </g>
      <g class="cls-10">
        <path class="cls-5" d="M138.7,33.6c-1.8,1.7-3.2,3.6-4.2,5.8s.2.5.4.2c1.1-2.1,2.4-4.1,4-5.9s0-.3-.2-.2h0Z"/>
      </g>
      <g class="cls-10">
        <path class="cls-5" d="M139,34.8c-.2.5-.5,1-.8,1.4s-.6.9-1,1.3.2.4.3.2c.4-.4.7-.9,1-1.4s.5-1,.7-1.5-.2-.3-.3-.1h0Z"/>
      </g>
      <path class="cls-3" d="M157.9,15.4c-2.6-4.3-7.5-7.4-12.5-6.9-2.4.3-4.7,1.3-6.5,2.8-4.6,3.7-6.9,10.1-5.4,15.8,1.2,4.8,4.8,9.1,9.8,10,.7.1,1.4.2,2.1.2,2.6,0,5.1-.3,7.3-1.7,5.7-3.7,8.8-10.9,6.5-17.5-.3-.9-.8-1.8-1.3-2.7Z"/>
      <path class="cls-7" d="M145,8.3c-.9,0-1.7.3-2.5.6-3.2,1.2-5.9,3.6-7.6,6.5s-2.6,6.4-2.4,9.8c2.1.2,4.2-1,5.8-2.3,2.9-2.4,5.2-5.6,6.3-9.2.6-1.8,1-3.7.4-5.4Z"/>
      <path class="cls-7" d="M160.1,24.4c-4.9-1.4-9.2-4.6-12.2-8.7-1.7-2.3-2.9-4.6-2.8-7.5,2.8-.5,5.5.4,7.9,1.9,2.6,1.7,5.1,3.8,6.4,6.6,1.2,2.4,1.5,5.1.8,7.6Z"/>
      <g class="cls-10">
        <path class="cls-5" d="M143.2,10.2c-4,2.6-7.2,6.3-9,10.7s.3.4.4.2c1.9-4.3,4.9-8,8.8-10.6s0-.3-.1-.2h0Z"/>
      </g>
      <g class="cls-10">
        <path class="cls-5" d="M143.4,11.5c-3.2,2.9-4.5,7.2-7.6,10.2s0,.4.2.2c3.2-2.9,4.3-7.4,7.6-10.3s0-.4-.2-.2h0Z"/>
      </g>
      <g class="cls-10">
        <path class="cls-5" d="M142.4,14.7c-.6,1.3-1.4,2.4-2.4,3.5s0,.2.1.1c1-1.1,1.8-2.3,2.4-3.5s0-.1-.1,0h0Z"/>
      </g>
      <g class="cls-10">
        <path class="cls-5" d="M147.5,12.3c.8,2.3,2.4,4.2,4.3,5.7s.3-.1.1-.2c-1.9-1.4-3.4-3.3-4.3-5.5s-.1,0-.1,0h0Z"/>
      </g>
      <g class="cls-10">
        <path class="cls-5" d="M147.1,10.7c3.5,2.8,6.4,6.1,8.8,9.9s.4,0,.3-.2c-2.3-3.9-5.3-7.2-8.9-9.9s-.3.1-.2.2h0Z"/>
      </g>
      <g class="cls-10">
        <path class="cls-5" d="M149.3,10.3c.6,0,1,.4,1.5.7s.7.6,1.1.8c.7.6,1.4,1.1,2,1.7,1.3,1.2,2.5,2.6,3.3,4.2s.4,0,.3-.2c-.8-1.7-2.1-3.2-3.5-4.4s-1.4-1.2-2.2-1.7-1.5-1.4-2.4-1.3-.1.2,0,.2h0Z"/>
      </g>
      <path class="cls-3" d="M156.9,31.4c-.9,3.6-.5,7.7-.3,11.4.3,3.6-.5,7.3-2.3,10.4-1.1,2-2.7,3.9-4.9,4.8-2.7,1.1-6,.3-7.9-1.9-1.3-1.5-1.9-3.4-2-5.4s-.4-4,.3-5.9c.5-1.5,1.1-2.9,1.3-4.5.2-1.5,0-3.2-.9-4.5,3.6,1.7,8.1,1.3,11.7-.4,2-.9,4-2.1,5-4.1Z"/>
      <path class="cls-1" d="M156.7,32.2c-4.1,4.2-10.8,6-16.3,4,.7,1.5,1.1,2.9.7,4.3,3.4.9,7.3.6,10.3-1.3,2.4-1.5,4-4.6,5.4-7.1Z"/>
    </g>
  </g>
</svg>